<mxfile host="65bd71144e">
    <diagram id="stwNvvhAEf2OUdrHxZNL" name="Page-1">
        <mxGraphModel dx="812" dy="676" grid="1" gridSize="10" guides="1" tooltips="1" connect="1" arrows="1" fold="1" page="1" pageScale="1" pageWidth="827" pageHeight="1169" math="0" shadow="0">
            <root>
                <mxCell id="0"/>
                <mxCell id="1" parent="0"/>
                <mxCell id="2" value="Poste Banc" style="shape=umlActor;html=1;verticalLabelPosition=bottom;verticalAlign=top;align=center;" vertex="1" parent="1">
                    <mxGeometry x="40" y="250" width="30" height="60" as="geometry"/>
                </mxCell>
                <mxCell id="5" value="" style="rounded=0;whiteSpace=wrap;html=1;" vertex="1" parent="1">
                    <mxGeometry x="110" y="90" width="630" height="950" as="geometry"/>
                </mxCell>
                <mxCell id="6" value="Poste Controleur" style="shape=umlActor;html=1;verticalLabelPosition=bottom;verticalAlign=top;align=center;" vertex="1" parent="1">
                    <mxGeometry x="770" y="720" width="30" height="60" as="geometry"/>
                </mxCell>
                <mxCell id="8" value="Récupération des paramétres d'essai à partir du numéro d'affaire" style="ellipse;whiteSpace=wrap;html=1;" vertex="1" parent="1">
                    <mxGeometry x="190" y="370" width="190" height="90" as="geometry"/>
                </mxCell>
                <mxCell id="12" value="" style="endArrow=none;html=1;entryX=0.5;entryY=0.5;entryDx=0;entryDy=0;entryPerimeter=0;exitX=0;exitY=0.5;exitDx=0;exitDy=0;" edge="1" parent="1" source="8" target="2">
                    <mxGeometry width="50" height="50" relative="1" as="geometry">
                        <mxPoint x="430" y="300" as="sourcePoint"/>
                        <mxPoint x="480" y="250" as="targetPoint"/>
                        <Array as="points">
                            <mxPoint x="160" y="415"/>
                            <mxPoint x="160" y="280"/>
                        </Array>
                    </mxGeometry>
                </mxCell>
                <mxCell id="14" value="Include" style="endArrow=none;dashed=1;html=1;dashPattern=1 3;strokeWidth=2;entryX=0.736;entryY=0.959;entryDx=0;entryDy=0;entryPerimeter=0;" edge="1" parent="1" source="17" target="8">
                    <mxGeometry width="50" height="50" relative="1" as="geometry">
                        <mxPoint x="440" y="540" as="sourcePoint"/>
                        <mxPoint x="650" y="590" as="targetPoint"/>
                    </mxGeometry>
                </mxCell>
                <mxCell id="15" value="Include" style="endArrow=none;dashed=1;html=1;dashPattern=1 3;strokeWidth=2;" edge="1" parent="1" source="8" target="16">
                    <mxGeometry width="50" height="50" relative="1" as="geometry">
                        <mxPoint x="450" y="550" as="sourcePoint"/>
                        <mxPoint x="500" y="500" as="targetPoint"/>
                    </mxGeometry>
                </mxCell>
                <mxCell id="16" value="Mode opératoire" style="ellipse;whiteSpace=wrap;html=1;" vertex="1" parent="1">
                    <mxGeometry x="170" y="500" width="110" height="50" as="geometry"/>
                </mxCell>
                <mxCell id="17" value="Essais prévus" style="ellipse;whiteSpace=wrap;html=1;" vertex="1" parent="1">
                    <mxGeometry x="320" y="510" width="110" height="50" as="geometry"/>
                </mxCell>
                <mxCell id="19" value="Affichage du tracé CPA,CPB&lt;br&gt;Calcul des rendements" style="ellipse;whiteSpace=wrap;html=1;" vertex="1" parent="1">
                    <mxGeometry x="210" y="130" width="150" height="80" as="geometry"/>
                </mxCell>
                <mxCell id="20" value="Fin des acquisitions" style="ellipse;whiteSpace=wrap;html=1;" vertex="1" parent="1">
                    <mxGeometry x="210" y="240" width="150" height="80" as="geometry"/>
                </mxCell>
                <mxCell id="21" value="Sauvegarde" style="ellipse;whiteSpace=wrap;html=1;" vertex="1" parent="1">
                    <mxGeometry x="264" y="640" width="150" height="80" as="geometry"/>
                </mxCell>
                <mxCell id="23" value="" style="endArrow=none;html=1;exitX=0.5;exitY=0.5;exitDx=0;exitDy=0;exitPerimeter=0;entryX=0;entryY=0.5;entryDx=0;entryDy=0;" edge="1" parent="1" source="2" target="20">
                    <mxGeometry width="50" height="50" relative="1" as="geometry">
                        <mxPoint x="380" y="270" as="sourcePoint"/>
                        <mxPoint x="430" y="220" as="targetPoint"/>
                    </mxGeometry>
                </mxCell>
                <mxCell id="24" value="" style="endArrow=none;html=1;exitX=0.5;exitY=0.5;exitDx=0;exitDy=0;exitPerimeter=0;entryX=0;entryY=0.5;entryDx=0;entryDy=0;" edge="1" parent="1" source="2" target="19">
                    <mxGeometry width="50" height="50" relative="1" as="geometry">
                        <mxPoint x="380" y="270" as="sourcePoint"/>
                        <mxPoint x="430" y="220" as="targetPoint"/>
                        <Array as="points">
                            <mxPoint x="160" y="280"/>
                            <mxPoint x="160" y="170"/>
                        </Array>
                    </mxGeometry>
                </mxCell>
                <mxCell id="26" value="Include" style="endArrow=none;dashed=1;html=1;dashPattern=1 3;strokeWidth=2;entryX=0.008;entryY=0.618;entryDx=0;entryDy=0;entryPerimeter=0;exitX=0.98;exitY=0.315;exitDx=0;exitDy=0;exitPerimeter=0;" edge="1" parent="1" source="20" target="28">
                    <mxGeometry width="50" height="50" relative="1" as="geometry">
                        <mxPoint x="380" y="270" as="sourcePoint"/>
                        <mxPoint x="430" y="220" as="targetPoint"/>
                    </mxGeometry>
                </mxCell>
                <mxCell id="27" value="Include" style="endArrow=none;dashed=1;html=1;dashPattern=1 3;strokeWidth=2;entryX=0;entryY=0.5;entryDx=0;entryDy=0;exitX=0.961;exitY=0.703;exitDx=0;exitDy=0;exitPerimeter=0;" edge="1" parent="1" source="20" target="29">
                    <mxGeometry width="50" height="50" relative="1" as="geometry">
                        <mxPoint x="380" y="270" as="sourcePoint"/>
                        <mxPoint x="430" y="220" as="targetPoint"/>
                    </mxGeometry>
                </mxCell>
                <mxCell id="28" value="Enregistrement en BD" style="ellipse;whiteSpace=wrap;html=1;" vertex="1" parent="1">
                    <mxGeometry x="420" y="180" width="120" height="80" as="geometry"/>
                </mxCell>
                <mxCell id="29" value="Fin de l'essai" style="ellipse;whiteSpace=wrap;html=1;" vertex="1" parent="1">
                    <mxGeometry x="420" y="280" width="120" height="80" as="geometry"/>
                </mxCell>
                <mxCell id="32" value="Include" style="endArrow=none;dashed=1;html=1;dashPattern=1 3;strokeWidth=2;entryX=0.5;entryY=0;entryDx=0;entryDy=0;exitX=0.5;exitY=1;exitDx=0;exitDy=0;" edge="1" parent="1" source="21" target="33">
                    <mxGeometry width="50" height="50" relative="1" as="geometry">
                        <mxPoint x="374.1500000000001" y="316.24" as="sourcePoint"/>
                        <mxPoint x="440.0000000000023" y="340" as="targetPoint"/>
                    </mxGeometry>
                </mxCell>
                <mxCell id="33" value="Stockage&amp;nbsp; des information d'acquisition sur la BD controleur" style="ellipse;whiteSpace=wrap;html=1;" vertex="1" parent="1">
                    <mxGeometry x="279" y="770" width="120" height="80" as="geometry"/>
                </mxCell>
                <mxCell id="37" value="Restauration BD depuis le support externe" style="ellipse;whiteSpace=wrap;html=1;" vertex="1" parent="1">
                    <mxGeometry x="510" y="770" width="120" height="80" as="geometry"/>
                </mxCell>
                <mxCell id="38" value="Sauvegarde Sur un support externe" style="ellipse;whiteSpace=wrap;html=1;" vertex="1" parent="1">
                    <mxGeometry x="510" y="640" width="120" height="80" as="geometry"/>
                </mxCell>
                <mxCell id="39" value="" style="endArrow=none;html=1;entryX=1;entryY=0.5;entryDx=0;entryDy=0;exitX=0.5;exitY=0.5;exitDx=0;exitDy=0;exitPerimeter=0;" edge="1" parent="1" source="6" target="38">
                    <mxGeometry width="50" height="50" relative="1" as="geometry">
                        <mxPoint x="380" y="830" as="sourcePoint"/>
                        <mxPoint x="430" y="780" as="targetPoint"/>
                        <Array as="points">
                            <mxPoint x="680" y="750"/>
                            <mxPoint x="680" y="680"/>
                        </Array>
                    </mxGeometry>
                </mxCell>
                <mxCell id="40" value="" style="endArrow=none;html=1;exitX=1;exitY=0.5;exitDx=0;exitDy=0;" edge="1" parent="1" source="37" target="6">
                    <mxGeometry width="50" height="50" relative="1" as="geometry">
                        <mxPoint x="380" y="830" as="sourcePoint"/>
                        <mxPoint x="430" y="780" as="targetPoint"/>
                        <Array as="points">
                            <mxPoint x="680" y="810"/>
                            <mxPoint x="680" y="750"/>
                        </Array>
                    </mxGeometry>
                </mxCell>
                <mxCell id="41" value="Include" style="endArrow=none;dashed=1;html=1;dashPattern=1 3;strokeWidth=2;exitX=0.5;exitY=1;exitDx=0;exitDy=0;entryX=0.5;entryY=0;entryDx=0;entryDy=0;" edge="1" parent="1" source="38" target="37">
                    <mxGeometry width="50" height="50" relative="1" as="geometry">
                        <mxPoint x="281.3360388429037" y="617.0799514463704" as="sourcePoint"/>
                        <mxPoint x="580" y="820" as="targetPoint"/>
                    </mxGeometry>
                </mxCell>
                <mxCell id="42" value="BDD" style="shape=datastore;whiteSpace=wrap;html=1;" vertex="1" parent="1">
                    <mxGeometry x="25" y="720" width="60" height="60" as="geometry"/>
                </mxCell>
                <mxCell id="44" value="" style="endArrow=none;html=1;exitX=1;exitY=0.5;exitDx=0;exitDy=0;entryX=0;entryY=0.5;entryDx=0;entryDy=0;" edge="1" parent="1" source="42" target="21">
                    <mxGeometry width="50" height="50" relative="1" as="geometry">
                        <mxPoint x="510" y="630" as="sourcePoint"/>
                        <mxPoint x="560" y="580" as="targetPoint"/>
                        <Array as="points">
                            <mxPoint x="180" y="750"/>
                            <mxPoint x="180" y="680"/>
                        </Array>
                    </mxGeometry>
                </mxCell>
                <mxCell id="45" value="" style="endArrow=none;html=1;exitX=1;exitY=0.5;exitDx=0;exitDy=0;entryX=0;entryY=0.5;entryDx=0;entryDy=0;" edge="1" parent="1" source="42" target="33">
                    <mxGeometry width="50" height="50" relative="1" as="geometry">
                        <mxPoint x="510" y="630" as="sourcePoint"/>
                        <mxPoint x="560" y="580" as="targetPoint"/>
                        <Array as="points">
                            <mxPoint x="180" y="750"/>
                            <mxPoint x="180" y="810"/>
                        </Array>
                    </mxGeometry>
                </mxCell>
            </root>
        </mxGraphModel>
    </diagram>
</mxfile>